<svg xmlns="http://www.w3.org/2000/svg" viewBox="0 0 32 32">
  <rect width="32" height="32" rx="8" fill="#7F77DD"/>
  <ellipse cx="15" cy="19" rx="8" ry="6.5" fill="white"/>
  <circle cx="21" cy="13" r="5" fill="white"/>
  <path d="M26 12.5 L28.5 13 L26 14" fill="white"/>
  <path d="M7 19 C5 18 4 20 5 22 C6 21 7 21 8 22 C8 20 7 19 7 19Z" fill="white"/>
  <path d="M14 25 L13 27.5 M13 27.5 L12 27.5 M13 27.5 L14 28" fill="none" stroke="white" stroke-width="0.8" stroke-linecap="round"/>
  <path d="M17 25.5 L16 28 M16 28 L15 28 M16 28 L17 28.5" fill="none" stroke="white" stroke-width="0.8" stroke-linecap="round"/>
</svg>
